HIERARCHY
ROOT Hips
{
	OFFSET 0.00000 0.00000 0.00000
	CHANNELS 6 Xposition Yposition Zposition Zrotation Yrotation Xrotation 
	JOINT LHipJoint
	{
		OFFSET 0 0 0
		CHANNELS 3 Zrotation Yrotation Xrotation
		JOINT LeftHip
		{
			OFFSET 1.80322 -1.53100 0.99595
			CHANNELS 3 Zrotation Yrotation Xrotation
			JOINT LeftKnee
			{
				OFFSET 2.25177 -6.18669 0.00000
				CHANNELS 3 Zrotation Yrotation Xrotation
				JOINT LeftAnkle
				{
					OFFSET 2.26601 -6.22582 0.00000
					CHANNELS 3 Zrotation Yrotation Xrotation
					JOINT LeftToe
					{
						OFFSET 0.23701 -0.65119 2.15848
						CHANNELS 3 Zrotation Yrotation Xrotation
						End Site
						{
							OFFSET 0.00000 -0.00000 1.12949
						}
					}
				}
			}
		}
	}
	JOINT RHipJoint
	{
		OFFSET 0 0 0
		CHANNELS 3 Zrotation Yrotation Xrotation
		JOINT RightHip
		{
			OFFSET -1.93977 -1.53100 0.99595
			CHANNELS 3 Zrotation Yrotation Xrotation
			JOINT RightKnee
			{
				OFFSET -2.28036 -6.26523 0.00000
				CHANNELS 3 Zrotation Yrotation Xrotation
				JOINT RightAnkle
				{
					OFFSET -2.25490 -6.19528 0.00000
					CHANNELS 3 Zrotation Yrotation Xrotation
					JOINT RightToe
					{
						OFFSET -0.28375 -0.77960 2.23137
						CHANNELS 3 Zrotation Yrotation Xrotation
						End Site
						{
							OFFSET -0.00000 -0.00000 1.17899
						}
					}
				}
			}
		}
	}
	JOINT lowerback
	{
		OFFSET 0 0 0
		CHANNELS 3 Zrotation Yrotation Xrotation
		JOINT Chest
		{
			OFFSET -0.00088 2.12090 -0.02806
			CHANNELS 3 Zrotation Yrotation Xrotation
			JOINT Chest2
			{
				OFFSET -0.00286 2.09666 0.12974
				CHANNELS 3 Zrotation Yrotation Xrotation
				JOINT lowerneck
				{
					OFFSET 0 0 0
					CHANNELS 3 Zrotation Yrotation Xrotation
					JOINT Neck
					{
						OFFSET 0.07328 1.83526 0.07290
						CHANNELS 3 Zrotation Yrotation Xrotation
						JOINT Head
						{
							OFFSET -0.06683 1.74974 -0.49542
							CHANNELS 3 Zrotation Yrotation Xrotation
							End Site
							{
								OFFSET -0.03398 1.85163 -0.17573
							}
						}
					}
				}
				JOINT LeftCollar
				{
					OFFSET 0 0 0
					CHANNELS 3 Zrotation Yrotation Xrotation
					JOINT LeftShoulder
					{
						OFFSET 3.02113 1.18018 0.40602
CHANNELS 3 Zrotation Xrotation Yrotation
						JOINT LeftElbow
						{
OFFSET 0 -4.585380 -0.000000
CHANNELS 3 Zrotation Xrotation Yrotation
							JOINT LeftWrist
							{
OFFSET 0 -2.689350 -0.000000
CHANNELS 3 Zrotation Xrotation Yrotation
								JOINT lhand
								{
									OFFSET 0 0 0
CHANNELS 3 Zrotation Xrotation Yrotation
									JOINT LFingers
									{
OFFSET 0 -0.585060 -0.000000
CHANNELS 3 Zrotation Xrotation Yrotation
										End Site
										{
OFFSET 0 -0.471690 -0.000000
										}
									}
								}
								JOINT LThumb
								{
OFFSET 0 0.000000 0.000000
CHANNELS 3 Zrotation Xrotation Yrotation
									End Site
									{
OFFSET 0 -0.478890 0.478890
									}
								}
							}
						}
					}
				}
				JOINT RightCollar
				{
					OFFSET 0 0 0
					CHANNELS 3 Zrotation Yrotation Xrotation
					JOINT RightShoulder
					{
						OFFSET -2.95074 1.18843 0.31430
CHANNELS 3 Zrotation Xrotation Yrotation
						JOINT RightElbow
						{
OFFSET 0 -4.474500 -0.000000
CHANNELS 3 Zrotation Xrotation Yrotation
							JOINT RightWrist
							{
OFFSET 0 -2.938960 -0.000000
CHANNELS 3 Zrotation Xrotation Yrotation
								JOINT rhand
								{
									OFFSET 0 0 0
CHANNELS 3 Zrotation Xrotation Yrotation
									JOINT RFingers
									{
OFFSET 0 -0.405090 -0.000000
CHANNELS 3 Zrotation Xrotation Yrotation
										End Site
										{
OFFSET 0 -0.326600 -0.000000
										}
									}
								}
								JOINT RThumb
								{
OFFSET 0 0.000000 0.000000
CHANNELS 3 Zrotation Xrotation Yrotation
									End Site
									{
OFFSET 0 -0.331580 0.331580
									}
								}
							}
						}
					}
				}
			}
		}
	}
}
MOTION
Frames: 6
Frame Time: 0.008333333333333333
-0.095867 14.910002 -1.870375 -0.754333 -0.407502 8.194371 0.000000 0.000000 0.000000 -14.487762 -8.662132 -27.042339 6.989214 15.322745 48.833372 1.997580 1.312980 -27.227388 0.520218 -4.622686 -12.835457 0.000000 0.000000 0.000000 14.459002 3.611285 -27.520519 -6.956603 -15.295207 48.709889 -2.440607 1.155365 -29.267020 -0.452244 4.314235 -11.962533 0.475585 -0.809500 3.066698 -0.290798 -1.077129 -5.772935 -0.466023 -0.569569 -7.770764 7.660169 1.505355 -13.877062 -3.867524 1.315536 36.813813 -2.784417 1.087086 15.298305 0.000000 0.000000 0.000000 43.212464 -51.993534 -18.370199 70.513370 -58.515407 43.208192 -39.197015 -7.314312 -21.118950 0.000000 0.000000 0.000000 -7.125000 0.000000 0.000000 -55.993596 42.944471 -4.490088 0.000000 0.000000 0.000000 -36.485263 -58.169767 22.179023 -47.674467 -52.013443 -24.328903 37.245876 -20.539360 30.148845 0.000000 0.000000 0.000000 7.125000 0.000000 0.000000 63.705887 49.693189 -11.670373
-0.095000 14.910407 -1.871126 -0.757799 -0.413105 8.196912 0.000000 0.000000 0.000000 -14.488686 -8.689396 -27.031018 6.986441 15.320434 48.822917 1.996540 1.346540 -27.233164 0.520853 -4.625459 -12.843370 0.000000 0.000000 0.000000 14.459407 3.640455 -27.508158 -6.951809 -15.291222 48.691867 -2.439221 1.130296 -29.265461 -0.452533 4.315506 -11.965999 0.470155 -0.809500 3.066293 -0.285195 -1.077187 -5.779404 -0.457070 -0.569107 -7.777291 7.678306 1.512864 -13.861986 -3.887972 1.330208 36.781639 -2.792850 1.092458 15.280514 0.000000 0.000000 0.000000 43.200391 -51.986603 -18.377997 70.521110 -58.516620 43.214777 -39.269046 -7.340537 -21.096249 0.000000 0.000000 0.000000 -7.125000 0.000000 0.000000 -56.003589 42.912412 -4.565064 0.000000 0.000000 0.000000 -36.462389 -58.163702 22.204670 -47.668402 -52.010728 -24.324109 37.172228 -20.473279 30.125336 0.000000 0.000000 0.000000 7.125000 0.000000 0.000000 63.636860 49.691167 -11.638719
-0.093867 14.910722 -1.871655 -0.754204 -0.410403 8.193459 0.000000 0.000000 0.000000 -14.499380 -8.725675 -27.009749 6.983668 15.318124 48.812551 1.996566 1.382987 -27.247023 0.519890 -4.621171 -12.831212 0.000000 0.000000 0.000000 14.451507 3.655815 -27.490246 -6.947458 -15.287502 48.675310 -2.437834 1.109846 -29.262702 -0.453311 4.319175 -11.976392 0.459130 -0.818115 3.074016 -0.274885 -1.088790 -5.789870 -0.438703 -0.573885 -7.792833 7.670688 1.521750 -13.831234 -3.892878 1.350342 36.748488 -2.789071 1.098674 15.258504 0.000000 0.000000 0.000000 43.185610 -51.954714 -18.378912 70.531115 -58.518188 43.223316 -39.245467 -7.341760 -21.103079 0.000000 0.000000 0.000000 -7.125000 0.000000 0.000000 -55.999816 42.922452 -4.541412 0.000000 0.000000 0.000000 -36.422507 -58.151109 22.266997 -47.672507 -52.012542 -24.327352 37.181622 -20.473276 30.130824 0.000000 0.000000 0.000000 7.125000 0.000000 0.000000 63.648344 49.693009 -11.647253
-0.092678 14.910998 -1.872141 -0.749579 -0.405652 8.188467 0.000000 0.000000 0.000000 -14.511610 -8.764207 -26.986048 6.980909 15.315824 48.802255 1.996820 1.420300 -27.262704 0.518517 -4.615078 -12.813921 0.000000 0.000000 0.000000 14.442364 3.668215 -27.471020 -6.943270 -15.283889 48.659307 -2.436431 1.090677 -29.259498 -0.454126 4.323057 -11.987428 0.447466 -0.828676 3.083618 -0.263387 -1.102948 -5.801271 -0.418430 -0.579852 -7.810482 7.656710 1.530828 -13.796015 -3.893727 1.371571 36.714922 -2.782219 1.105019 15.235208 0.000000 0.000000 0.000000 43.169215 -51.915919 -18.379107 70.540855 -58.519715 43.231636 -39.192088 -7.333877 -21.117425 0.000000 0.000000 0.000000 -7.125000 0.000000 0.000000 -55.990281 42.944285 -4.489779 0.000000 0.000000 0.000000 -36.379254 -58.136245 22.337396 -47.679396 -52.015598 -24.332798 37.214902 -20.492001 30.144205 0.000000 0.000000 0.000000 7.125000 0.000000 0.000000 63.682507 49.695679 -11.666540
-0.092101 14.910940 -1.873239 -0.772973 -0.412352 8.190258 0.000000 0.000000 0.000000 -14.487927 -8.791009 -26.976691 6.978483 15.313802 48.793071 1.994682 1.457557 -27.262820 0.518979 -4.617158 -12.819813 0.000000 0.000000 0.000000 14.465353 3.711190 -27.460912 -6.939804 -15.280943 48.646195 -2.434582 1.068785 -29.254126 -0.452162 4.313931 -11.961550 0.462543 -0.822727 3.078766 -0.257727 -1.093591 -5.805835 -0.421896 -0.575925 -7.812677 7.678255 1.534236 -13.767133 -3.910421 1.378792 36.678242 -2.790710 1.108196 15.211467 0.000000 0.000000 0.000000 43.132363 -51.892467 -18.413880 70.526357 -58.517463 43.219274 -39.111913 -7.285356 -21.096804 0.000000 0.000000 0.000000 -7.125000 0.000000 0.000000 -55.939219 42.943880 -4.481230 0.000000 0.000000 0.000000 -36.380698 -58.113486 22.331966 -47.679280 -52.015540 -24.332740 37.220274 -20.481372 30.136349 0.000000 0.000000 0.000000 7.125000 0.000000 0.000000 63.677366 49.689787 -11.651637
-0.091346 14.911059 -1.874142 -0.788050 -0.416717 8.190208 0.000000 0.000000 0.000000 -14.475057 -8.820979 -26.963405 6.975791 15.311533 48.782878 1.993023 1.498424 -27.267466 0.519512 -4.619538 -12.826537 0.000000 0.000000 0.000000 14.478769 3.745707 -27.449228 -6.936515 -15.278157 48.633773 -2.433123 1.051671 -29.249851 -0.449986 4.303725 -11.932681 0.472558 -0.818158 3.076957 -0.255021 -1.086622 -5.809602 -0.425362 -0.572988 -7.815757 7.694103 1.536405 -13.746410 -3.921062 1.382897 36.644306 -2.796246 1.110099 15.190629 0.000000 0.000000 0.000000 43.102942 -51.875899 -18.444902 70.516919 -58.515988 43.211231 -39.057291 -7.256089 -21.081173 0.000000 0.000000 0.000000 -7.125000 0.000000 0.000000 -55.903074 42.942361 -4.477990 0.000000 0.000000 0.000000 -36.376020 -58.092604 22.328377 -47.678740 -52.015288 -24.332328 37.200216 -20.454640 30.134775 0.000000 0.000000 0.000000 7.125000 0.000000 0.000000 63.663642 49.692318 -11.651741
